<?xml version="1.0" encoding="UTF-8"?>
<svg width="60px" height="60px" viewBox="0 0 60 60" version="1.1" xmlns="http://www.w3.org/2000/svg" xmlns:xlink="http://www.w3.org/1999/xlink">
    <!-- Generator: Sketch 51.2 (57519) - http://www.bohemiancoding.com/sketch -->
    <title>Icon/Feature Copy 2</title>
    <desc>Created with Sketch.</desc>
    <defs></defs>
    <g id="Final-Designs" stroke="#fff" stroke-width="1" fill="none" fill-rule="evenodd">
        <g id="Individual-Tea-4.1" transform="translate(-866.000000, -1153.000000)" fill="#3C3D4B">
            <g id="Group-3" transform="translate(822.000000, 1153.000000)">
                <g id="Icon/Feature-Big" transform="translate(44.000000, 0.000000)">
                    <g id="Icon/Toxic-Chemicals" transform="translate(15.000000, 15.000000)" fill-rule="evenodd">
                        <path d="M25.5958731,14.8522353 C25.2546802,14.5110397 24.7457258,14.5110397 24.4044991,14.8522353 L20.7239556,18.5327991 L8.16935899,18.5327991 L18.1065949,8.59549532 C18.4477879,8.25429975 18.4477879,7.74534153 18.1065949,7.40411219 L16.9152208,6.21272906 C16.5740278,5.8715335 16.0650735,5.8715335 15.7238467,6.21272906 C15.3826538,6.55392463 15.3826538,7.06288284 15.7238467,7.40411219 L16.3195338,7.99980375 L4.78702493,19.5324001 C2.40432502,21.9151181 2.40432502,25.8304969 4.78702493,28.2129736 C5.93689781,29.3628552 7.46756836,30 9.1282921,30 C10.7871338,30 12.3196864,29.3609731 13.4695593,28.2129736 L22.6591804,18.9779205 L24.9570441,16.6800394 L25.5527312,17.2757309 C25.8939242,17.6169265 26.4028785,17.6169265 26.7441053,17.2757309 C27.0852982,16.9345354 27.0852982,16.4255772 26.7441053,16.0843478 L25.5958731,14.8522353 Z M12.2344159,27.0223143 C11.3842686,27.8724681 10.2777307,28.3418696 9.08452281,28.3418696 C7.89314873,28.3418696 6.78665908,27.8743743 5.93462972,27.0223143 C5.0844824,26.1721605 4.61508448,25.0656142 4.61508448,23.8723973 C4.61508448,22.6810142 5.08257624,21.5745161 5.93462972,20.7224803 L6.46718231,20.1899161 L19.0217789,20.1899161 L12.2344159,27.0223143 Z M22.0629625,0 C20.3607859,0 18.9564044,1.40439208 18.9564044,3.10658169 C18.9564044,4.8087713 20.3607859,6.21316338 22.0629625,6.21316338 C23.7651392,6.21316338 25.1695207,4.8087713 25.1695207,3.10658169 C25.1695207,1.40439208 23.8085225,0 22.0629625,0 Z M22.0629625,4.55430908 C21.2976514,4.55430908 20.6585811,3.91528221 20.6585811,3.149917 C20.6585811,2.38460004 21.2976031,1.74552491 22.0629625,1.74552491 C22.8282737,1.74552491 23.467344,2.38455178 23.467344,3.149917 C23.467344,3.91523395 22.8716569,4.55430908 22.0629625,4.55430908 Z M21.2128152,10.5112247 C21.2128152,11.7873964 22.2345169,12.8091059 23.5106789,12.8091059 C24.786841,12.8091059 25.8085427,11.7873964 25.8085427,10.5112247 C25.8085427,9.23505302 24.786841,8.21334354 23.5106789,8.21334354 C22.2345169,8.21334354 21.2128152,9.23505302 21.2128152,10.5112247 Z M24.106366,10.5112247 C24.106366,10.8524203 23.8518864,11.1069163 23.5106789,11.1069163 C23.1694715,11.1069163 22.9149919,10.8524348 22.9149919,10.5112247 C22.9149919,10.1700291 23.1694715,9.91553315 23.5106789,9.91553315 C23.8518864,9.91553315 24.106366,10.1700147 24.106366,10.5112247 Z" id="Fill-1"></path>
                    </g>
                    <g id="Icon/No-Big" fill-rule="nonzero">
                        <path d="M30,60 C13.4314575,60 0,46.5685425 0,30 C0,13.4314575 13.4314575,0 30,0 C46.5685425,0 60,13.4314575 60,30 C60,46.5685425 46.5685425,60 30,60 Z M30,58 C45.463973,58 58,45.463973 58,30 C58,14.536027 45.463973,2 30,2 C14.536027,2 2,14.536027 2,30 C2,45.463973 14.536027,58 30,58 Z M9.49390335,8.07968978 L51.9203102,50.5060967 L50.5060967,51.9203102 L8.07968978,9.49390335 L9.49390335,8.07968978 Z" id="Oval"></path>
                    </g>
                </g>
            </g>
        </g>
    </g>
</svg>