<?xml version="1.0" encoding="UTF-8"?>
<svg width="60px" height="60px" viewBox="0 0 60 60" version="1.1" xmlns="http://www.w3.org/2000/svg" xmlns:xlink="http://www.w3.org/1999/xlink">
    <!-- Generator: Sketch 51.2 (57519) - http://www.bohemiancoding.com/sketch -->
    <title>Icon/Feature</title>
    <desc>Created with Sketch.</desc>
    <defs></defs>
    <g id="Final-Designs" stroke="#fff" stroke-width="1" fill="#444" fill-rule="evenodd">
        <g id="Individual-Tea-4.1" transform="translate(-502.000000, -1153.000000)" fill="#3C3D4B">
            <g id="Group-4" transform="translate(468.000000, 1153.000000)">
                <g id="Icon/Feature-Big" transform="translate(34.000000, 0.000000)">
                    <g id="Icon/Artificial-Colors" transform="translate(15.000000, 15.000000)" fill-rule="evenodd" stroke-width="1">
                        <g id="Group" transform="translate(4.000000, 0.000000)">
                            <path d="M20.6452813,13.757931 L11.8528438,0.802758621 C11.6621691,0.514503448 11.3385594,0.340758621 10.9934688,0.340758621 C10.6470375,0.340758621 10.3247719,0.51452069 10.1340938,0.802758621 L1.3550625,13.757931 C1.33357813,13.7902586 1.31343781,13.8239345 1.29597875,13.8589552 C-0.4939275,17.2695069 -0.37444,21.3710241 1.61153094,24.6710241 C3.59613719,27.9711276 7.15999969,29.9889545 11.0014059,29.9889545 C14.8445309,29.9889545 18.4068122,27.9711621 20.3926559,24.6710241 C22.3786028,21.3709207 22.4981247,17.2693 20.7068641,13.8589552 C20.6880644,13.8239345 20.6679241,13.7902586 20.6450956,13.757931 L20.6452813,13.757931 Z M17.2977406,25.3068966 C15.2755281,27.3341034 12.4072094,28.2648621 9.58605313,27.8082414 C6.76355625,27.3529655 4.33183438,25.5668621 3.04552188,23.0061724 C1.76048125,20.4455517 1.77794375,17.4216897 3.09386,14.8758276 L11.00011,3.22444828 L18.90636,14.8758276 C19.7831975,16.5582069 20.1014413,18.478931 19.811385,20.3568621 C19.5213459,22.2332069 18.6405038,23.9682414 17.2977131,25.3068621 L17.2977406,25.3068966 Z" id="Fill-1"></path>
                            <path d="M8.7725,22.8934483 C7.81780313,22.3519655 7.1168625,21.4521724 6.82546563,20.3907586 C6.5340825,19.3306897 6.67641906,18.1978621 7.2188875,17.2415172 C7.50355375,16.7444828 7.33302281,16.110069 6.83753125,15.8244828 C6.34203969,15.5388966 5.70961875,15.7099897 5.424925,16.2070345 C4.61254063,17.6402069 4.40305938,19.3387586 4.84216563,20.928069 C5.27989688,22.5161724 6.33129063,23.8644828 7.76135938,24.6753103 C8.25684063,24.960869 8.89064688,24.7898034 9.17530625,24.2927586 C9.4599725,23.7957241 9.2880975,23.1613103 8.79260938,22.8757241 L8.7725,22.8934483 Z" id="Fill-2"></path>
                        </g>
                    </g>
                    <g id="Icon/No-Big" fill-rule="nonzero">
                        <path d="M30,60 C13.4314575,60 0,46.5685425 0,30 C0,13.4314575 13.4314575,0 30,0 C46.5685425,0 60,13.4314575 60,30 C60,46.5685425 46.5685425,60 30,60 Z M30,58 C45.463973,58 58,45.463973 58,30 C58,14.536027 45.463973,2 30,2 C14.536027,2 2,14.536027 2,30 C2,45.463973 14.536027,58 30,58 Z M9.49390335,8.07968978 L51.9203102,50.5060967 L50.5060967,51.9203102 L8.07968978,9.49390335 L9.49390335,8.07968978 Z" id="Oval"></path>
                    </g>
                </g>
            </g>
        </g>
    </g>
</svg>