<?xml version="1.0" encoding="UTF-8"?>
<svg width="60px" height="60px" viewBox="0 0 60 60" version="1.1" xmlns="http://www.w3.org/2000/svg" xmlns:xlink="http://www.w3.org/1999/xlink">
    <!-- Generator: Sketch 51.2 (57519) - http://www.bohemiancoding.com/sketch -->
    <title>Icon/Feature Copy 3</title>
    <desc>Created with Sketch.</desc>
    <defs></defs>
    <g id="Final-Designs" stroke="#fff" stroke-width="1" fill="#fff" fill-rule="evenodd">
        <g id="Individual-Tea-4.1" transform="translate(-167.000000, -1153.000000)" fill="#3C3D4B">
            <g id="Group-6" transform="translate(150.000000, 1153.000000)">
                <g id="Icon/Feature-Big" transform="translate(17.000000, 0.000000)">
                    <g id="Icon/Organic" transform="translate(15.000000, 15.000000)" fill-rule="evenodd">
                        <path d="M13.5722009,28.9999569 C11.3592074,28.9999569 8.94754292,28.561446 6.34793766,27.6832268 C6.0948254,27.5966921 5.89046539,27.40608 5.78714698,27.1570017 C3.25602435,21.0738905 3.41623327,15.4221653 6.25041531,10.8122328 C10.0425219,4.64260489 18.3383123,0.702652805 29.0107827,0.00123895005 C29.2778293,-0.0116337754 29.5193197,0.0760803771 29.70625,0.25149072 C29.8943424,0.42806859 30,0.675991295 30,0.934403774 C30,9.81239322 28.5266129,21.4619104 21.5104133,26.5454395 C19.2521214,28.1814144 16.5968443,29 13.5721949,29 L13.5722009,28.9999569 Z M7.34069796,26.0413855 C12.7093317,27.7697434 17.1098754,27.4282869 20.4258137,25.0251886 C25.2606158,21.5241066 27.9844647,13.347531 28.1363511,1.94349373 C18.5553225,2.77258706 11.1860093,6.3357874 7.82935004,11.7980141 C5.34929214,15.8313683 5.18560558,20.6233152 7.34054934,26.0412358 L7.34069796,26.0413855 Z" id="Fill-1"></path>
                        <path d="M0.937906239,30 C0.498634771,30 0.106330381,29.6920937 0.0182295257,29.2443147 C-0.0827827658,28.7342564 0.246092015,28.2406555 0.754668486,28.1372178 C0.84980839,28.1172385 10.5281504,25.9876801 18.2449435,12.4744308 C18.5009952,12.0243051 19.0753466,11.8656584 19.5263749,12.1241926 C19.9762305,12.3815745 20.1336093,12.9562678 19.8764029,13.4063936 C11.7049734,27.7185933 1.55232612,29.8965623 1.12354917,29.9811063 C1.06129825,29.9940342 0.99904733,29.9999104 0.937969082,29.9999104 L0.937906239,30 Z" id="Fill-2"></path>
                    </g>
                    <g id="Icon/Yes" fill-rule="nonzero">
                        <path d="M30,60 C13.4314575,60 0,46.5685425 0,30 C0,13.4314575 13.4314575,0 30,0 C46.5685425,0 60,13.4314575 60,30 C60,46.5685425 46.5685425,60 30,60 Z M30,58 C45.463973,58 58,45.463973 58,30 C58,14.536027 45.463973,2 30,2 C14.536027,2 2,14.536027 2,30 C2,45.463973 14.536027,58 30,58 Z" id="Oval"></path>
                    </g>
                </g>
            </g>
        </g>
    </g>
</svg>