<?xml version="1.0" encoding="UTF-8"?>
<svg width="60px" height="60px" viewBox="0 0 60 60" version="1.1" xmlns="http://www.w3.org/2000/svg" xmlns:xlink="http://www.w3.org/1999/xlink">
    <!-- Generator: Sketch 51.2 (57519) - http://www.bohemiancoding.com/sketch -->
    <title>Icon/Feature Copy</title>
    <desc>Created with Sketch.</desc>
    <defs></defs>
    <g id="Final-Designs" stroke="#fff" stroke-width="1" fill="#fff" fill-rule="evenodd">
        <g id="Individual-Tea-4.1" transform="translate(-1212.000000, -1153.000000)" fill="#3C3D4B">
            <g id="Group" transform="translate(1193.000000, 1153.000000)">
                <g id="Icon/Feature-Big" transform="translate(19.000000, 0.000000)">
                    <g id="Icon/Pecticide" transform="translate(15.000000, 15.000000)" fill="#fff" fill-rule="evenodd">
                        <path d="M10.919019,1 C8.29702497,1 6.14915387,3.15282544 6.14915387,5.78049014 C6.12918057,7.16635423 8.21319779,7.16635423 8.19322108,5.78049014 C8.19322108,4.25991866 9.40102784,3.04878149 10.9190872,3.04878149 C12.4371465,3.04878149 13.6449533,4.25991866 13.6449533,5.78049014 C13.6449533,7.30106161 12.4371465,8.51219879 10.9190872,8.51219879 L1.03709386,8.51219879 C-0.345151151,8.49219244 -0.345151151,10.58099 1.03709386,10.5609803 L10.9190872,10.5609803 C10.9577043,10.5609803 10.9976543,10.5609803 11.0362714,10.5543115 C13.6050169,10.4902871 15.6902307,8.3681592 15.6902307,5.78065062 C15.6902307,3.15298593 13.5422914,1.00016049 10.9203656,1.00016049 L10.919019,1 Z M23.1845813,2.36585432 C19.4333237,2.36585432 16.3693195,5.43503143 16.3693195,9.19512595 C16.3493462,10.58099 18.4333634,10.58099 18.4147162,9.19512595 C18.4147162,6.54345636 20.5373607,4.41463581 23.1845813,4.41463581 C25.8318701,4.41463581 27.9558101,6.54345636 27.9558101,9.19512595 C27.9558101,11.8467955 25.831836,13.9756161 23.1845813,13.9756161 L1.03668376,13.9756161 C-0.345561253,13.9556097 -0.345561253,16.0444073 1.03668376,16.0243976 L23.1845813,16.0243976 C26.9358389,16.0243976 29.9984796,12.9552205 29.9984796,9.19512595 C29.9984796,5.43503143 26.9357025,2.36585432 23.1845813,2.36585432 Z M25.2406141,19.4390334 L1.03675296,19.4390334 L1.03808486,19.4390334 C0.763766474,19.4350314 0.500111429,19.5417388 0.305696471,19.7338121 C0.109945187,19.9258853 0.000751683293,20.1899733 0.000751683293,20.4634173 C0.000751683293,20.7381896 0.109945187,21.0009493 0.305696471,21.1930225 C0.500114838,21.3850958 0.763797155,21.4918032 1.03808486,21.4878012 L25.2034254,21.4878012 L25.227394,21.4878012 C26.7454534,21.4878012 27.9545896,22.6989384 27.9545896,24.2195099 C27.9545896,25.7400813 26.7454534,26.9512185 25.227394,26.9512185 C23.7093347,26.9512185 22.5001984,25.7400813 22.5001984,24.2195099 C22.5041937,23.9460727 22.3976627,23.6806462 22.2059067,23.4859095 C22.0141508,23.2911694 21.7518287,23.1804601 21.4775069,23.1804601 C21.2031851,23.1804601 20.9408629,23.2911694 20.749107,23.4859095 C20.5573511,23.6806496 20.45082,23.9461 20.4548153,24.2195099 C20.4548153,26.8471746 22.6040841,29 25.2274077,29 C27.8507312,29 30,26.8471746 30,24.2195099 C30,21.6438501 27.9346266,19.529849 25.3818351,19.4468734 C25.3352273,19.4415363 25.2886196,19.4388695 25.2420118,19.4388695 L25.2406141,19.4390334 Z" id="Fill-1" transform="translate(15.000000, 15.000000) scale(1, -1) translate(-15.000000, -15.000000) "></path>
                    </g>
                    <g id="Icon/No-Big" fill="#fff" fill-rule="nonzero">
                        <path d="M30,60 C13.4314575,60 0,46.5685425 0,30 C0,13.4314575 13.4314575,0 30,0 C46.5685425,0 60,13.4314575 60,30 C60,46.5685425 46.5685425,60 30,60 Z M30,58 C45.463973,58 58,45.463973 58,30 C58,14.536027 45.463973,2 30,2 C14.536027,2 2,14.536027 2,30 C2,45.463973 14.536027,58 30,58 Z M9.49390335,8.07968978 L51.9203102,50.5060967 L50.5060967,51.9203102 L8.07968978,9.49390335 L9.49390335,8.07968978 Z" id="Oval"></path>
                    </g>
                </g>
            </g>
        </g>
    </g>
</svg>